# xmcd
#
# Track frame offsets: 
#        150
#        14530
#        29172
#        46440
#        60825
#        73950
#        88177
#        101061
#        119611
#        137023
#        149101
#        168935
#        183136
#        196856
#
# Disc length: 3077 seconds
#
# Revision: 0
# Processed by: cddbd v1.5.2PL0 Copyright (c) Steve Scherf et al.
# Submitted via: ExactAudioCopy v0.95b3
#
DISCID=d20c030e
DTITLE=Various Artist - Mr Music Country 2007-06
DYEAR=2007
DGENRE=Country
TTITLE0=Doug and Carol Livingstone - Bandera Lady
TTITLE1=Rick Stancil - Laws Of Love
TTITLE2=Aaron Watson - San Angelo
TTITLE3=John Arthur Martinez - A Real Good Year For Beer
TTITLE4=Kim Carson - I-10 Westbound Blues
TTITLE5=Arkey Blue - The Hills Of Fredericksburg
TTITLE6=Rawstin - Blame It On Texas
TTITLE7=Red Jenkins and Amber Digby - A Violin That Never Been Played
TTITLE8=James Segrest - Willie's Weed And Mushroom Tea
TTITLE9=Dottie Jack - I'll Save Some Blues For You
TTITLE10=Louie Carpitto - The Famous Last Ride
TTITLE11=Jackson Taylor Band - Wicked, Wicked Me
TTITLE12=Raicky Calmbach - San Antonio Rose
TTITLE13=Roger Wallace - The Confesstion
EXTD=
EXTT0=
EXTT1=
EXTT2=
EXTT3=
EXTT4=
EXTT5=
EXTT6=
EXTT7=
EXTT8=
EXTT9=
EXTT10=
EXTT11=
EXTT12=
EXTT13=
PLAYORDER=
